<svg width="35" height="51" viewBox="0 0 35 51" fill="none" xmlns="http://www.w3.org/2000/svg">
<path d="M9.37437 20.5501V30.4083M9.37437 20.5501L1 15.6418M9.37437 20.5501L34 5.99151M25.7915 50L17.6658 45.1824M25.7915 50V40.2042L17.6658 45.1824M25.7915 50L34 45.1824V5.99151M9.37437 30.4083V40.2666L17.6658 45.1824M9.37437 30.4083L1 25.5416V15.6418M9.37437 30.4083L17.6658 35.275M9.37437 30.4083L17.5829 25.4792M1 15.6418L25.7915 1L34 5.99151M17.6658 35.275L25.7915 30.4083M17.6658 35.275V45.1824M25.7915 30.4083V20.5501L17.5829 25.4792M25.7915 30.4083L21.6872 27.9438L17.5829 25.4792" stroke="white" stroke-width="2" stroke-linejoin="round"/>
</svg>
